<svg xmlns="http://www.w3.org/2000/svg" width="20.871" height="20.875" viewBox="0 0 20.871 20.875">
  <path id="globe-solid" d="M14.162,14.4c-.61-3.758-2.05-6.4-3.725-6.4s-3.114,2.639-3.725,6.4ZM6.4,18.438a26.379,26.379,0,0,0,.139,2.694h7.8a26.38,26.38,0,0,0,.139-2.694,26.38,26.38,0,0,0-.139-2.694h-7.8A26.379,26.379,0,0,0,6.4,18.438ZM20.063,14.4a10.46,10.46,0,0,0-6.65-5.959,14.2,14.2,0,0,1,2.1,5.959ZM7.458,8.438A10.453,10.453,0,0,0,.812,14.4H5.358a14.147,14.147,0,0,1,2.1-5.959Zm13.055,7.306H15.686c.088.884.139,1.789.139,2.694s-.051,1.81-.139,2.694h4.823a10.347,10.347,0,0,0,.362-2.694,10.528,10.528,0,0,0-.358-2.694ZM5.05,18.438c0-.9.051-1.81.139-2.694H.362a10.2,10.2,0,0,0,0,5.387H5.185C5.1,20.247,5.05,19.342,5.05,18.438Zm1.662,4.04c.61,3.758,2.05,6.4,3.725,6.4s3.114-2.639,3.725-6.4Zm6.7,5.959a10.47,10.47,0,0,0,6.65-5.959H15.522A14.2,14.2,0,0,1,13.417,28.437ZM.812,22.478a10.46,10.46,0,0,0,6.65,5.959,14.2,14.2,0,0,1-2.1-5.959H.812Z" transform="translate(0 -8)" fill="#00d3ff"/>
</svg>
