<svg xmlns="http://www.w3.org/2000/svg" width="44.331" height="51.539" viewBox="0 0 44.331 51.539">
  <g id="Group_10" data-name="Group 10" transform="translate(-0.004 -0.009)">
    <path id="Path_15" data-name="Path 15" d="M25.718,42.565c.066,0,.147.025.2,0q6.848-3.7,13.693-7.415c.294-.108.24-.4.292-.613q2.189-8.829,4.352-17.662c.046-.182.195-.392-.085-.524-.162-.3-.489-.367-.759-.491q-7.34-3.426-14.69-6.827a11.789,11.789,0,0,0-2.933-1.239l-.068.052A49.945,49.945,0,0,0,25.692,2.8c-.1-.1-.178-.228-.294-.28C23.534,1.706,21.663.913,19.8.094a1.359,1.359,0,0,0-1.177.149Q10.043,3.834,1.466,7.424c-.526.222-1.428.29-1.461.769-.039.56.873.605,1.355.893,1.5.9,3.223,1.368,4.626,2.446a41.019,41.019,0,0,0,1.287,4.86.1.1,0,0,0,.01.16c.035.238.05.479.106.711,1.283,5.248,2.626,10.481,3.822,15.747A4.248,4.248,0,0,0,13.677,36.2c4.06,2.031,8.033,4.23,12.041,6.362" transform="translate(0 0)" fill="#00d3ff"/>
    <path id="Path_16" data-name="Path 16" d="M161.975,191.73a3.494,3.494,0,0,0-3.465,3.4,3.558,3.558,0,0,0,3.5,3.5,3.508,3.508,0,0,0,3.449-3.426A3.449,3.449,0,0,0,161.975,191.73Z" transform="translate(-125.655 -151.987)" fill="#00d3ff"/>
    <path id="Path_17" data-name="Path 17" d="M111.215,215.67a3.422,3.422,0,0,0-.017,6.843,3.422,3.422,0,1,0,.017-6.843Z" transform="translate(-85.463 -170.966)" fill="#00d3ff"/>
    <path id="Path_18" data-name="Path 18" d="M60.06,191.73a3.505,3.505,0,0,0-3.471,3.384,3.466,3.466,0,1,0,3.471-3.384Z" transform="translate(-44.857 -151.987)" fill="#00d3ff"/>
  </g>
</svg>
