<svg id="logo" xmlns="http://www.w3.org/2000/svg" width="29.584" height="34.395" viewBox="0 0 29.584 34.395">
  <path id="Path_1" data-name="Path 1" d="M47.441,97.2c-2.673-1.423-5.326-2.891-8.034-4.245a2.835,2.835,0,0,1-1.646-2.131c-.8-3.514-1.694-7.006-2.55-10.508-.037-.155-.048-.315-.071-.474,3.294,1.893,6.582,3.8,9.889,5.672a8.437,8.437,0,0,0,2.418,1.236.2.2,0,0,1,.1.035c-.011.048-.021.1-.032.145-.015.25-.044.5-.046.752Q47.446,92.437,47.441,97.2Z" transform="translate(-30.281 -68.798)" fill="#7b02fc"/>
  <path id="Path_2" data-name="Path 2" d="M124.144,37.55a7.794,7.794,0,0,1,1.957.827q4.908,2.263,9.8,4.556c.18.084.4.126.506.328a4.284,4.284,0,0,1-.436.329q-5.888,3.379-11.779,6.749a.215.215,0,0,0-.1-.035c.007-.275.021-.55.021-.826Q124.133,43.514,124.144,37.55Z" transform="translate(-106.937 -32.357)" fill="#00d3ff"/>
  <path id="Path_3" data-name="Path 3" d="M47.3,37.55q-.01,5.964-.022,11.93c0,.275-.014.55-.021.826a8.455,8.455,0,0,1-2.418-1.236c-3.307-1.871-6.594-3.778-9.889-5.672a.069.069,0,0,1-.007-.106c.059-.178.234-.214.372-.279,3.448-1.611,6.892-3.231,10.352-4.81a3.994,3.994,0,0,1,1.585-.617Z" transform="translate(-30.091 -32.357)" fill="#fb33d1"/>
  <path id="Path_4" data-name="Path 4" d="M4,7.69A29.62,29.62,0,0,0,.909,6.058c-.322-.192-.931-.221-.9-.6C.027,5.141.629,5.1.98,4.949Q6.7,2.544,12.43.155a.907.907,0,0,1,.786-.1c1.241.546,2.489,1.076,3.733,1.618.077.035.131.123.2.187a1.873,1.873,0,0,0-.266.071C13.417,3.44,9.95,4.941,6.5,6.474A9.38,9.38,0,0,0,4,7.69Z" transform="translate(-0.004 0.001)" fill="#00d3ff"/>
  <path id="Path_5" data-name="Path 5" d="M136.393,78.84a4.287,4.287,0,0,1-.436.329q-5.888,3.379-11.779,6.749c-.011.048-.021.1-.032.145-.015.25-.044.5-.046.752q-.015,4.759-.021,9.519c.044,0,.1.017.133,0q4.57-2.471,9.138-4.948c.2-.072.16-.267.195-.409q1.46-5.892,2.9-11.786C136.48,79.068,136.58,78.93,136.393,78.84Z" transform="translate(-106.92 -67.936)" fill="#fb33d1"/>
  <path id="Path_6" data-name="Path 6" d="M28.87,19.281a9.358,9.358,0,0,1,2.5-1.216c3.452-1.534,6.919-3.034,10.382-4.545a1.873,1.873,0,0,1,.266-.071,33.327,33.327,0,0,1,.019,3.366,3.994,3.994,0,0,0-1.585.617c-3.462,1.581-6.905,3.2-10.353,4.812-.138.065-.313.1-.372.279A27.373,27.373,0,0,1,28.87,19.281Z" transform="translate(-24.878 -11.59)" fill="#7b02fc"/>
  <path id="Path_7" data-name="Path 7" d="M160.822,191.73a2.3,2.3,0,0,1,2.322,2.318,2.341,2.341,0,0,1-2.3,2.286A2.373,2.373,0,0,1,158.509,194,2.331,2.331,0,0,1,160.822,191.73Z" transform="translate(-136.587 -165.213)" fill="#00d3ff"/>
  <path id="Path_8" data-name="Path 8" d="M110.091,215.67a2.284,2.284,0,1,1-.01,4.567,2.283,2.283,0,0,1,.01-4.567Z" transform="translate(-92.909 -185.842)" fill="#7b02fc"/>
  <path id="Path_9" data-name="Path 9" d="M58.9,191.73a2.309,2.309,0,0,1,2.308,2.325,2.313,2.313,0,0,1-4.625-.068A2.339,2.339,0,0,1,58.9,191.73Z" transform="translate(-48.762 -165.213)" fill="#fb33d1"/>
</svg>
