<svg xmlns="http://www.w3.org/2000/svg" width="146.592" height="34.395" viewBox="0 0 146.592 34.395">
  <g id="logo-complete" transform="translate(-0.004 0.001)">
    <g id="Group_1" data-name="Group 1" transform="translate(0.004 -0.001)">
      <path id="Path_1" data-name="Path 1" d="M47.441,97.2c-2.673-1.423-5.326-2.891-8.034-4.245a2.835,2.835,0,0,1-1.646-2.131c-.8-3.514-1.694-7.006-2.55-10.508-.037-.155-.048-.315-.071-.474,3.294,1.893,6.582,3.8,9.889,5.672a8.437,8.437,0,0,0,2.418,1.236.2.2,0,0,1,.1.035c-.011.048-.021.1-.032.145-.015.25-.044.5-.046.752Q47.446,92.437,47.441,97.2Z" transform="translate(-30.281 -68.798)" fill="#7b02fc"/>
      <path id="Path_2" data-name="Path 2" d="M124.144,37.55a7.794,7.794,0,0,1,1.957.827q4.908,2.263,9.8,4.556c.18.084.4.126.506.328a4.284,4.284,0,0,1-.436.329q-5.888,3.379-11.779,6.749a.215.215,0,0,0-.1-.035c.007-.275.021-.55.021-.826Q124.133,43.514,124.144,37.55Z" transform="translate(-106.937 -32.357)" fill="#00d3ff"/>
      <path id="Path_3" data-name="Path 3" d="M47.3,37.55q-.01,5.964-.022,11.93c0,.275-.014.55-.021.826a8.455,8.455,0,0,1-2.418-1.236c-3.307-1.871-6.594-3.778-9.889-5.672a.069.069,0,0,1-.007-.106c.059-.178.234-.214.372-.279,3.448-1.611,6.892-3.231,10.352-4.81a3.994,3.994,0,0,1,1.585-.617Z" transform="translate(-30.091 -32.357)" fill="#fb33d1"/>
      <path id="Path_4" data-name="Path 4" d="M4,7.69A29.62,29.62,0,0,0,.909,6.058c-.322-.192-.931-.221-.9-.6C.027,5.141.629,5.1.98,4.949Q6.7,2.544,12.43.155a.907.907,0,0,1,.786-.1c1.241.546,2.489,1.076,3.733,1.618.077.035.131.123.2.187a1.873,1.873,0,0,0-.266.071C13.417,3.44,9.95,4.941,6.5,6.474A9.38,9.38,0,0,0,4,7.69Z" transform="translate(-0.004 0.001)" fill="#00d3ff"/>
      <path id="Path_5" data-name="Path 5" d="M136.393,78.84a4.287,4.287,0,0,1-.436.329q-5.888,3.379-11.779,6.749c-.011.048-.021.1-.032.145-.015.25-.044.5-.046.752q-.015,4.759-.021,9.519c.044,0,.1.017.133,0q4.57-2.471,9.138-4.948c.2-.072.16-.267.195-.409q1.46-5.892,2.9-11.786C136.48,79.068,136.58,78.93,136.393,78.84Z" transform="translate(-106.92 -67.936)" fill="#fb33d1"/>
      <path id="Path_6" data-name="Path 6" d="M28.87,19.281a9.358,9.358,0,0,1,2.5-1.216c3.452-1.534,6.919-3.034,10.382-4.545a1.873,1.873,0,0,1,.266-.071,33.327,33.327,0,0,1,.019,3.366,3.994,3.994,0,0,0-1.585.617c-3.462,1.581-6.905,3.2-10.353,4.812-.138.065-.313.1-.372.279A27.373,27.373,0,0,1,28.87,19.281Z" transform="translate(-24.878 -11.59)" fill="#7b02fc"/>
      <path id="Path_7" data-name="Path 7" d="M160.822,191.73a2.3,2.3,0,0,1,2.322,2.318,2.341,2.341,0,0,1-2.3,2.286A2.373,2.373,0,0,1,158.509,194,2.331,2.331,0,0,1,160.822,191.73Z" transform="translate(-136.587 -165.213)" fill="#00d3ff"/>
      <path id="Path_8" data-name="Path 8" d="M110.091,215.67a2.284,2.284,0,1,1-.01,4.567,2.283,2.283,0,0,1,.01-4.567Z" transform="translate(-92.909 -185.842)" fill="#7b02fc"/>
      <path id="Path_9" data-name="Path 9" d="M58.9,191.73a2.309,2.309,0,0,1,2.308,2.325,2.313,2.313,0,0,1-4.625-.068A2.339,2.339,0,0,1,58.9,191.73Z" transform="translate(-48.762 -165.213)" fill="#fb33d1"/>
    </g>
    <g id="Group_2" data-name="Group 2" transform="translate(42.782 5.542)">
      <path id="Path_10" data-name="Path 10" d="M290.219,83.183a6.6,6.6,0,0,1-2.107,5.285,7.922,7.922,0,0,1-5.37,1.818h-4.317v6.049h3.806v2.176H273.16V96.334h2.786V78.6H273.16V76.42h9.38q4.11,0,5.9,2A6.917,6.917,0,0,1,290.219,83.183Zm-2.65.067a4.593,4.593,0,0,0-1.257-3.4,5.443,5.443,0,0,0-3.975-1.257H278.43v9.516h4.01Q287.569,88.108,287.57,83.25Z" transform="translate(-273.16 -76.385)" fill="#fff"/>
      <path id="Path_11" data-name="Path 11" d="M423.877,129.9H416.2v-1.938h2.651V116.718H416.13V114.78h5.1v13.184h2.649Z" transform="translate(-390.167 -107.779)" fill="#fff"/>
      <rect id="Rectangle_3" data-name="Rectangle 3" width="3.278" height="3.093" transform="translate(27.748)" fill="#00d3ff"/>
      <path id="Path_12" data-name="Path 12" d="M519.788,129.893h-6.661v-1.938h1.97l-3.534-4.349L508,127.956h1.8v1.938H503.51v-1.938h2.072l4.758-5.608-4.791-5.64H503.51V114.77h6.9v1.938h-2.039l3.4,4.282,3.5-4.282h-1.8V114.77h6.049v1.938h-1.767l-4.723,5.5,4.86,5.742h1.9v1.939Z" transform="translate(-461.679 -107.771)" fill="#fff"/>
      <path id="Path_13" data-name="Path 13" d="M650.991,124.177a5.34,5.34,0,0,1-1.938,3.314,6.635,6.635,0,0,1-4.418,1.377,6.916,6.916,0,0,1-5.165-2,7.75,7.75,0,0,1-1.97-5.675,8.861,8.861,0,0,1,1.869-5.811,6.2,6.2,0,0,1,5.063-2.277,5.824,5.824,0,0,1,4.758,1.97,7.229,7.229,0,0,1,1.665,4.656,8.279,8.279,0,0,1-.2,1.8H640.015q.2,5.3,4.791,5.3a4.276,4.276,0,0,0,2.82-.85,4.094,4.094,0,0,0,1.36-2.243Zm-2.651-4.418a4.841,4.841,0,0,0-.8-3.194,4.128,4.128,0,0,0-6.27-.1,7.138,7.138,0,0,0-1.224,3.3Z" transform="translate(-571.337 -106.405)" fill="#fff"/>
      <path id="Path_14" data-name="Path 14" d="M777.6,120.777a8.109,8.109,0,0,1-2.039,5.675,7.115,7.115,0,0,1-5.539,2.243,6.868,6.868,0,0,1-5.386-2.176,8.063,8.063,0,0,1-1.954-5.608,8.738,8.738,0,0,1,1.9-5.659,7.795,7.795,0,0,1,11.146-.035A8.613,8.613,0,0,1,777.6,120.777Zm-2.515-.035a6.46,6.46,0,0,0-1.307-4.2,4.479,4.479,0,0,0-3.687-1.614,4.329,4.329,0,0,0-3.654,1.665,6.677,6.677,0,0,0-1.275,4.18,6.839,6.839,0,0,0,1.257,4.18,4.279,4.279,0,0,0,3.67,1.7,4.4,4.4,0,0,0,3.7-1.682A6.752,6.752,0,0,0,775.083,120.742Z" transform="translate(-673.784 -106.233)" fill="#fff"/>
    </g>
  </g>
</svg>
