<svg id="logotipo" xmlns="http://www.w3.org/2000/svg" width="103.814" height="22.464" viewBox="0 0 103.814 22.464">
  <path id="Path_10" data-name="Path 10" d="M290.219,83.183a6.6,6.6,0,0,1-2.107,5.285,7.922,7.922,0,0,1-5.37,1.818h-4.317v6.049h3.806v2.176H273.16V96.334h2.786V78.6H273.16V76.42h9.38q4.11,0,5.9,2A6.917,6.917,0,0,1,290.219,83.183Zm-2.65.067a4.593,4.593,0,0,0-1.257-3.4,5.443,5.443,0,0,0-3.975-1.257H278.43v9.516h4.01Q287.569,88.108,287.57,83.25Z" transform="translate(-273.16 -76.385)" fill="#fff"/>
  <path id="Path_11" data-name="Path 11" d="M423.877,129.9H416.2v-1.938h2.651V116.718H416.13V114.78h5.1v13.184h2.649Z" transform="translate(-390.167 -107.779)" fill="#fff"/>
  <rect id="Rectangle_3" data-name="Rectangle 3" width="3.278" height="3.093" transform="translate(27.748)" fill="#00d3ff"/>
  <path id="Path_12" data-name="Path 12" d="M519.788,129.893h-6.661v-1.938h1.97l-3.534-4.349L508,127.956h1.8v1.938H503.51v-1.938h2.072l4.758-5.608-4.791-5.64H503.51V114.77h6.9v1.938h-2.039l3.4,4.282,3.5-4.282h-1.8V114.77h6.049v1.938h-1.767l-4.723,5.5,4.86,5.742h1.9v1.939Z" transform="translate(-461.679 -107.771)" fill="#fff"/>
  <path id="Path_13" data-name="Path 13" d="M650.991,124.177a5.34,5.34,0,0,1-1.938,3.314,6.635,6.635,0,0,1-4.418,1.377,6.916,6.916,0,0,1-5.165-2,7.75,7.75,0,0,1-1.97-5.675,8.861,8.861,0,0,1,1.869-5.811,6.2,6.2,0,0,1,5.063-2.277,5.824,5.824,0,0,1,4.758,1.97,7.229,7.229,0,0,1,1.665,4.656,8.279,8.279,0,0,1-.2,1.8H640.015q.2,5.3,4.791,5.3a4.276,4.276,0,0,0,2.82-.85,4.094,4.094,0,0,0,1.36-2.243Zm-2.651-4.418a4.841,4.841,0,0,0-.8-3.194,4.128,4.128,0,0,0-6.27-.1,7.138,7.138,0,0,0-1.224,3.3Z" transform="translate(-571.337 -106.405)" fill="#fff"/>
  <path id="Path_14" data-name="Path 14" d="M777.6,120.777a8.109,8.109,0,0,1-2.039,5.675,7.115,7.115,0,0,1-5.539,2.243,6.868,6.868,0,0,1-5.386-2.176,8.063,8.063,0,0,1-1.954-5.608,8.738,8.738,0,0,1,1.9-5.659,7.795,7.795,0,0,1,11.146-.035A8.613,8.613,0,0,1,777.6,120.777Zm-2.515-.035a6.46,6.46,0,0,0-1.307-4.2,4.479,4.479,0,0,0-3.687-1.614,4.329,4.329,0,0,0-3.654,1.665,6.677,6.677,0,0,0-1.275,4.18,6.839,6.839,0,0,0,1.257,4.18,4.279,4.279,0,0,0,3.67,1.7,4.4,4.4,0,0,0,3.7-1.682A6.752,6.752,0,0,0,775.083,120.742Z" transform="translate(-673.784 -106.233)" fill="#fff"/>
</svg>
